#!OML:ASF H:\Dans Jumps\Project 1\Capture day 1\Session 1\subject.ASF
:FULLY-SPECIFIED
:DEGREES
509
root 0.238849 17.8269 3.19981 9.33902 -0.527031 -0.895789
lowerback -1.94292 -0.0546261 -0.443775
upperback 3.02839 -0.0966683 1.0993
thorax 4.21127 -0.0815202 1.37697
lowerneck -12.2328 0.0743304 -1.74389
upperneck 31.5712 0.25219 0.945826
head 12.4623 0.0251138 0.700559
rclavicle 6.4605e-016 -1.98785e-016
rhumerus -24.3897 -11.3954 -84.1529
rradius 24.7788
rwrist 32.5857
rhand -21.9801 -29.0745
rfingers 7.12502
rthumb 4.42794 -59.0082
lclavicle 6.4605e-016 -1.98785e-016
lhumerus -18.5981 -0.650421 89.1815
lradius 17.4484
lwrist 4.87931
lhand -26.0949 -7.11328
lfingers 7.12502
lthumb 0.454074 22.866
rfemur -15.1958 -2.64276 19.6915
rtibia 19.833
rfoot -11.9241 0.492358
rtoes 19.7074
lfemur -10.8888 6.72652 -18.0593
ltibia 13.8296
lfoot -10.059 4.78561
ltoes -1.82605
510
root 0.241931 17.8266 3.1965 9.31941 -0.501801 -0.883745
lowerback -1.97244 -0.0712904 -0.459377
upperback 3.01462 -0.118587 1.10899
thorax 4.21441 -0.0930408 1.3945
lowerneck -12.2124 0.0815208 -1.75616
upperneck 31.4144 0.271846 0.925801
head 12.3934 0.0306964 0.69661
rclavicle -5.46658e-016 -4.17448e-015
rhumerus -24.4504 -11.384 -84.1276
rradius 24.7592
rwrist 32.6437
rhand -21.9587 -29.0751
rfingers 7.12502
rthumb 4.44866 -59.0084
lclavicle -5.46658e-016 -4.17448e-015
lhumerus -18.5673 -0.653284 89.1898
lradius 17.4263
lwrist 4.81801
lhand -26.0941 -7.10202
lfingers 7.12502
lthumb 0.454876 22.8772
rfemur -15.1818 -2.61872 19.6661
rtibia 19.833
rfoot -11.9285 0.435249
rtoes 19.6876
lfemur -10.881 6.74101 -18.0795
ltibia 13.8238
lfoot -10.1556 4.75211
ltoes -2.22089
511
root 0.244957 17.8262 3.19327 9.30279 -0.489496 -0.878874
lowerback -2.00404 -0.0819646 -0.469676
upperback 2.99754 -0.132759 1.12031
thorax 4.21509 -0.10054 1.41114
lowerneck -12.1952 0.0856271 -1.77358
upperneck 31.2656 0.286661 0.911093
head 12.3288 0.0342102 0.694995
rclavicle -4.57205e-015 -3.97569e-016
rhumerus -24.5165 -11.4094 -84.0883
rradius 24.7305
rwrist 32.7484
rhand -21.9462 -29.0715
rfingers 7.12502
rthumb 4.4607 -59.0045
lclavicle -4.57205e-015 -3.97569e-016
lhumerus -18.5414 -0.662386 89.2019
lradius 17.3956
lwrist 4.74317
lhand -26.1006 -7.09401
lfingers 7.12502
lthumb 0.448561 22.8853
rfemur -15.1739 -2.57838 19.6484
rtibia 19.8346
rfoot -11.9326 0.371652
rtoes 19.662
lfemur -10.8787 6.75229 -18.0939
ltibia 13.8257
lfoot -10.2279 4.73205
ltoes -2.5474
512
root 0.248052 17.8257 3.19018 9.28516 -0.487643 -0.88297
lowerback -2.03493 -0.0879238 -0.470474
upperback 2.97917 -0.141077 1.1334
thorax 4.21383 -0.10484 1.42461
lowerneck -12.1882 0.0885315 -1.7932
upperneck 31.1295 0.298979 0.901001
head 12.2717 0.0369181 0.695304
rclavicle -3.23025e-015 -3.97569e-016
rhumerus -24.5876 -11.4676 -84.0364
rradius 24.6977
rwrist 32.8837
rhand -21.9389 -29.0687
rfingers 7.12502
rthumb 4.46776 -59.0015
lclavicle -3.23025e-015 -3.97569e-016
lhumerus -18.5193 -0.664549 89.2145
lradius 17.3566
lwrist 4.65353
lhand -26.1041 -7.08343
lfingers 7.12502
lthumb 0.445201 22.8958
rfemur -15.1659 -2.53199 19.6401
rtibia 19.8356
rfoot -11.9351 0.313294
rtoes 19.6428
lfemur -10.8789 6.7601 -18.1003
ltibia 13.8393
lfoot -10.2696 4.72634
ltoes -2.85184
513
root 0.251262 17.825 3.18712 9.26593 -0.4944 -0.896887
lowerback -2.06526 -0.0893359 -0.460184
upperback 2.96325 -0.143877 1.14853
thorax 4.21461 -0.106101 1.43426
lowerneck -12.1956 0.0897399 -1.81809
upperneck 31.0044 0.308143 0.898273
head 12.2223 0.0385232 0.699019
rclavicle 1.73937e-015 -4.37326e-015
rhumerus -24.6509 -11.5663 -83.9721
rradius 24.6482
rwrist 33.0411
rhand -21.9415 -29.0666
rfingers 7.12502
rthumb 4.46521 -58.9995
lclavicle 1.73937e-015 -4.37326e-015
lhumerus -18.4944 -0.651067 89.2265
lradius 17.3084
lwrist 4.54573
lhand -26.1081 -7.07591
lfingers 7.12502
lthumb 0.441325 22.9034
rfemur -15.1569 -2.48023 19.6422
rtibia 19.8359
rfoot -11.9348 0.259124
rtoes 19.6225
lfemur -10.8819 6.76403 -18.0976
ltibia 13.8649
lfoot -10.2853 4.73362
ltoes -3.12708
514
root 0.254621 17.8241 3.184 9.24237 -0.505618 -0.916623
lowerback -2.08947 -0.0888007 -0.443484
upperback 2.94983 -0.144445 1.16591
thorax 4.21444 -0.106096 1.44279
lowerneck -12.2162 0.0921574 -1.8384
upperneck 30.8907 0.320114 0.889291
head 12.1804 0.0410888 0.700085
rclavicle -8.44835e-016 3.97569e-015
rhumerus -24.7044 -11.6971 -83.8968
rradius 24.58
rwrist 33.205
rhand -21.948 -29.0672
rfingers 7.12502
rthumb 4.45902 -59.0003
lclavicle -8.44835e-016 3.97569e-015
lhumerus -18.4667 -0.604902 89.2356
lradius 17.2527
lwrist 4.4167
lhand -26.1168 -7.08107
lfingers 7.12502
lthumb 0.432932 22.8982
rfemur -15.1443 -2.42989 19.6503
rtibia 19.8369
rfoot -11.9325 0.21222
rtoes 19.5997
lfemur -10.885 6.76266 -18.0898
ltibia 13.9006
lfoot -10.2878 4.74912
ltoes -3.30541
515
root 0.2582 17.8232 3.18076 9.21357 -0.519619 -0.934694
lowerback -2.10921 -0.0875239 -0.426162
upperback 2.94063 -0.144081 1.18326
thorax 4.21609 -0.105636 1.45098
lowerneck -12.2494 0.0996932 -1.84489
upperneck 30.7858 0.340272 0.86732
head 12.1447 0.0472346 0.695085
rclavicle -1.54058e-015 5.96354e-016
rhumerus -24.7423 -11.8565 -83.8127
rradius 24.4896
rwrist 33.3665
rhand -21.9581 -29.0744
rfingers 7.12502
rthumb 4.44926 -59.0077
lclavicle -1.54058e-015 5.96354e-016
lhumerus -18.4337 -0.537031 89.2439
lradius 17.188
lwrist 4.27817
lhand -26.1256 -7.08469
lfingers 7.12502
lthumb 0.424401 22.8946
rfemur -15.1276 -2.38458 19.6556
rtibia 19.8403
rfoot -11.9295 0.173335
rtoes 19.5639
lfemur -10.8857 6.75555 -18.085
ltibia 13.9428
lfoot -10.2904 4.76914
ltoes -3.31636
516
root 0.261941 17.8222 3.17747 9.17937 -0.53594 -0.950619
lowerback -2.12285 -0.0856153 -0.409956
upperback 2.93337 -0.142843 1.20078
thorax 4.21627 -0.104783 1.46004
lowerneck -12.2849 0.112247 -1.83443
upperneck 30.6861 0.368549 0.828727
head 12.1117 0.056841 0.682053
rclavicle 4.96962e-017 6.75868e-015
rhumerus -24.7722 -12.0379 -83.7204
rradius 24.3852
rwrist 33.523
rhand -21.9706 -29.0853
rfingers 7.12502
rthumb 4.43717 -59.0188
lclavicle 4.96962e-017 6.75868e-015
lhumerus -18.3979 -0.447655 89.2526
lradius 17.1173
lwrist 4.14591
lhand -26.1196 -7.05698
lfingers 7.12502
lthumb 0.430225 22.9223
rfemur -15.1071 -2.34297 19.6574
rtibia 19.8472
rfoot -11.9264 0.141362
rtoes 19.5242
lfemur -10.8823 6.74565 -18.0831
ltibia 13.9882
lfoot -10.2823 4.79022
ltoes -3.22956
517
root 0.265867 17.8212 3.17415 9.14121 -0.553018 -0.96359
lowerback -2.13219 -0.0834845 -0.394359
upperback 2.92564 -0.141237 1.21731
thorax 4.21352 -0.103732 1.46844
lowerneck -12.3139 0.128993 -1.81194
upperneck 30.5917 0.402518 0.780735
head 12.0795 0.0691614 0.664216
rclavicle 2.6339e-015 -2.38542e-015
rhumerus -24.7996 -12.2451 -83.62
rradius 24.2689
rwrist 33.6781
rhand -21.9884 -29.0892
rfingers 7.12502
rthumb 4.41995 -59.0231
lclavicle 2.6339e-015 -2.38542e-015
lhumerus -18.3664 -0.348754 89.2623
lradius 17.0428
lwrist 4.02582
lhand -26.1054 -7.00739
lfingers 7.12502
lthumb 0.443942 22.9719
rfemur -15.0847 -2.30932 19.655
rtibia 19.8582
rfoot -11.9235 0.11838
rtoes 19.4835
lfemur -10.8754 6.73487 -18.0854
ltibia 14.0344
lfoot -10.2659 4.80726
ltoes -3.04029
518
root 0.269886 17.8201 3.17082 9.09772 -0.570636 -0.974652
lowerback -2.13601 -0.08037 -0.378684
upperback 2.91728 -0.138246 1.23241
thorax 4.20692 -0.101944 1.47537
lowerneck -12.3327 0.145676 -1.7857
upperneck 30.4978 0.434299 0.735359
head 12.0455 0.0812753 0.646413
rclavicle -2.78299e-015 -1.09332e-014
rhumerus -24.826 -12.4777 -83.513
rradius 24.1437
rwrist 33.8341
rhand -21.9993 -29.0978
rfingers 7.12502
rthumb 4.40948 -59.0319
lclavicle -2.78299e-015 -1.09332e-014
lhumerus -18.3459 -0.245329 89.2733
lradius 16.9705
lwrist 3.92521
lhand -26.0773 -6.93014
lfingers 7.12502
lthumb 0.471121 23.0491
rfemur -15.0585 -2.28255 19.65
rtibia 19.8725
rfoot -11.9219 0.102767
rtoes 19.4446
lfemur -10.8627 6.72527 -18.0897
ltibia 14.0806
lfoot -10.2397 4.81586
ltoes -2.75147
519
root 0.273961 17.8191 3.16746 9.05132 -0.589055 -0.98295
lowerback -2.13752 -0.077334 -0.365722
upperback 2.90872 -0.135225 1.24719
thorax 4.19881 -0.100214 1.48352
lowerneck -12.3391 0.160879 -1.7667
upperneck 30.4014 0.462345 0.699893
head 12.008 0.0921658 0.633049
rclavicle 3.97569e-016 8.15017e-015
rhumerus -24.85 -12.7294 -83.3999
rradius 24.0131
rwrist 33.9929
rhand -22.0037 -29.1011
rfingers 7.12502
rthumb 4.40524 -59.0353
lclavicle 3.97569e-016 8.15017e-015
lhumerus -18.3335 -0.134768 89.2861
lradius 16.8921
lwrist 3.82889
lhand -26.0539 -6.88273
lfingers 7.12502
lthumb 0.493653 23.0964
rfemur -15.0314 -2.26251 19.6419
rtibia 19.8907
rfoot -11.9224 0.0921724
rtoes 19.4037
lfemur -10.846 6.70906 -18.0965
ltibia 14.1252
lfoot -10.1953 4.82164
ltoes -2.38411
